HIERARCHY
ROOT RootJoint
{
    OFFSET   0.000000   0.000000   0.000000
    CHANNELS 6 Xposition Yposition Zposition Xrotation Yrotation Zrotation
    JOINT pelvis_lowerback
    {
        OFFSET   0.000000   0.093605   0.000000
        CHANNELS 3 Xrotation Yrotation Zrotation
        JOINT lowerback_torso
        {
            OFFSET   0.000000   0.100000   0.000000
            CHANNELS 3 Xrotation Yrotation Zrotation
            JOINT torso_head
            {
                OFFSET   0.000000   0.282350   0.000000
                CHANNELS 3 Xrotation Yrotation Zrotation
                End Site
                {
                    OFFSET   0.000000   0.192650   0.000000
                }
            }
            JOINT rTorso_Clavicle
            {
                OFFSET  -0.001000   0.157500   0.000000
                CHANNELS 3 Xrotation Yrotation Zrotation
                JOINT rShoulder
                {
                    OFFSET  -0.117647   0.000000   0.000000
                    CHANNELS 3 Xrotation Yrotation Zrotation
                    JOINT rElbow
                    {
                        OFFSET  -0.245000   0.000000   0.000000
                        CHANNELS 3 Xrotation Yrotation Zrotation
                        JOINT rWrist
                        {
                            OFFSET  -0.240000   0.000000   0.000000
                            CHANNELS 3 Xrotation Yrotation Zrotation
                            End Site
                            {
                                OFFSET  -0.116353  -0.002500   0.000000
                            }
                        }
                    }
                }
            }
            JOINT lTorso_Clavicle
            {
                OFFSET   0.001000   0.157500   0.000000
                CHANNELS 3 Xrotation Yrotation Zrotation
                JOINT lShoulder
                {
                    OFFSET   0.117647   0.000000   0.000000
                    CHANNELS 3 Xrotation Yrotation Zrotation
                    JOINT lElbow
                    {
                        OFFSET   0.245000   0.000000   0.000000
                        CHANNELS 3 Xrotation Yrotation Zrotation
                        JOINT lWrist
                        {
                            OFFSET   0.240000   0.000000   0.000000
                            CHANNELS 3 Xrotation Yrotation Zrotation
                            End Site
                            {
                                OFFSET   0.116353  -0.002500   0.000000
                            }
                        }
                    }
                }
            }
        }
    }
    JOINT rHip
    {
        OFFSET  -0.100000  -0.051395   0.000000
        CHANNELS 3 Xrotation Yrotation Zrotation
        JOINT rKnee
        {
            OFFSET   0.000000  -0.410000   0.000000
            CHANNELS 3 Xrotation Yrotation Zrotation
            JOINT rAnkle
            {
                OFFSET   0.000000  -0.390000   0.000000
                CHANNELS 3 Xrotation Yrotation Zrotation
                JOINT rToeJoint
                {
                    OFFSET   0.000000  -0.050000   0.130000
                    CHANNELS 3 Xrotation Yrotation Zrotation
                    End Site
                    {
                        OFFSET  -0.010000   0.002000   0.060000
                    }
                }
            }
        }
    }
    JOINT lHip
    {
        OFFSET   0.100000  -0.051395   0.000000
        CHANNELS 3 Xrotation Yrotation Zrotation
        JOINT lKnee
        {
            OFFSET   0.000000  -0.410000   0.000000
            CHANNELS 3 Xrotation Yrotation Zrotation
            JOINT lAnkle
            {
                OFFSET   0.000000  -0.390000   0.000000
                CHANNELS 3 Xrotation Yrotation Zrotation
                JOINT lToeJoint
                {
                    OFFSET   0.000000  -0.050000   0.130000
                    CHANNELS 3 Xrotation Yrotation Zrotation
                    End Site
                    {
                        OFFSET   0.010000   0.002000   0.060000
                    }
                }
            }
        }
    }
}
MOTION
Frames: 12
Frame Time:   0.008333
 -2.376719   0.925631   3.975860   0.000000   0.000000   0.000000   0.000000   0.000000   0.000000   0.000000   0.000000   0.000000   0.000000   0.000000   0.000000   0.000000   0.000000   0.000000   0.000000   0.000000   0.000000   0.000000   0.000000   0.000000   0.000000   0.000000   0.000000   0.000000   0.000000   0.000000   0.000000   0.000000   0.000000   0.000000   0.000000   0.000000   0.000000   0.000000   0.000000   0.000000   0.000000   0.000000   0.000000   0.000000   0.000000   0.000000   0.000000   0.000000   0.000000   0.000000   0.000000   0.000000   0.000000   0.000000   0.000000   0.000000   0.000000   0.000000   0.000000   0.000000   0.000000   0.000000   0.000000
 -2.376255   0.925838   3.976042  -0.249853   0.183904   0.007620   0.248111  -0.130196   0.060631   0.125915  -0.127467   0.048419  -0.116330   0.162503   0.039917   0.003420  -0.477700  -0.326393   0.270778   0.179781   2.411764   0.019560   1.015843  -0.003657   0.144550  -0.174612  -2.314183  -0.025335   0.399283   0.194906   0.567329  -0.052881  -2.449276   0.023393  -1.247910   0.007450   0.225552   0.359461   2.150884   0.003383  -0.231772  -0.078996   0.606599   0.000376  -0.000256  -1.304197  -0.569790   0.102588  -0.265887   0.000079   0.001430  -0.184050   0.037775  -0.084691   2.026377   0.001436   0.003890  -2.160216   0.507382   0.346743   0.097364  -0.000230   0.000622
 -2.375572   0.926257   3.976591  -0.555010   0.329407   0.001848   0.454401  -0.266912   0.171745   0.281904  -0.273143   0.129933  -0.196579   0.320007   0.093379   0.006190  -0.973307  -0.061598   0.527078   0.353526   5.288112   0.044110   1.990238  -0.005566   0.315461  -0.063296  -3.974441  -0.040923   0.792594  -0.230350   1.114475  -0.141636  -5.365779   0.052204  -2.448864   0.012277   0.477549   0.389055   3.576391  -0.031540  -0.456565  -0.191324   1.233595   0.000933  -0.000657  -2.530122  -1.111129   0.184335  -0.595452  -0.000023   0.002916  -0.152414   0.092057  -0.186869   4.209479   0.003567   0.006735  -4.178845   0.977798   0.689896   0.111325  -0.000212   0.000580
 -2.374792   0.926540   3.977396  -0.845988   0.456387  -0.014022   0.601526  -0.423326   0.308470   0.405980  -0.437833   0.223311  -0.268844   0.466872   0.154476   0.011930  -1.465591   0.600433   0.770565   0.512143   8.472478   0.067553   2.894466  -0.005869   0.484342   0.075017  -4.947189  -0.046954   1.161634  -1.085007   1.618698  -0.251778  -8.432618   0.078676  -3.572338   0.014612   0.720748   0.341956   4.239709  -0.148741  -0.668776  -0.323125   1.807201   0.001457  -0.000990  -3.674556  -1.619033   0.248995  -0.905411  -0.000211   0.003918   0.039817   0.141861  -0.294443   6.338559   0.005701   0.008312  -6.060956   1.405327   1.025398   0.132072  -0.000208   0.000573
 -2.373992   0.926438   3.978363  -1.112152   0.579658  -0.037845   0.701517  -0.602385   0.456750   0.493959  -0.623507   0.321931  -0.340074   0.603428   0.216211   0.026034  -1.955917   1.508577   1.005596   0.654910  11.869604   0.087263   3.729325  -0.005136   0.641578   0.174779  -5.408128  -0.041141   1.507195  -2.192459   2.083620  -0.380939 -11.524504   0.099910  -4.620560   0.015409   0.949369   0.281098   4.365533  -0.346708  -0.867813  -0.465641   2.318229   0.001866  -0.001183  -4.743841  -2.094782   0.299152  -1.196221  -0.000412   0.004508   0.353484   0.186325  -0.401109   8.379377   0.007558   0.009123  -7.818350   1.793679   1.351582   0.151503  -0.000201   0.000552
 -2.373218   0.925772   3.979418  -1.355117   0.703986  -0.067711   0.767106  -0.802501   0.609524   0.554045  -0.829147   0.422987  -0.410568   0.730457   0.275224   0.052342  -2.444500   2.557343   1.235572   0.783369  15.411597   0.102337   4.498572  -0.003828   0.784135   0.221162  -5.519173  -0.023109   1.830194  -3.434594   2.511960  -0.526777 -14.563234   0.115116  -5.598272   0.015375   1.163614   0.220290   4.140387  -0.615258  -1.053302  -0.613609   2.770279   0.002145  -0.001251  -5.743129  -2.539869   0.337126  -1.468107  -0.000588   0.004778   0.761546   0.225991  -0.503644  10.326118   0.009049   0.009451  -9.459790   2.146596   1.667283   0.168324  -0.000189   0.000515
 -2.372450   0.924395   3.980505  -1.578159   0.827395  -0.105456   0.808682  -1.020541   0.771842   0.594973  -1.052048   0.542890  -0.479469   0.848776   0.325164   0.095529  -2.929312   3.733247   1.450519   0.896048  18.875099   0.112234   5.207324  -0.002202   0.912541   0.217183  -5.308365   0.006290   2.130849  -4.741214   2.905841  -0.687110 -17.506586   0.124515  -6.510591   0.014960   1.365016   0.160352   3.687112  -0.943776  -1.225187  -0.765088   3.168907   0.002321  -0.001239  -6.677029  -2.955853   0.365016  -1.721364  -0.000734   0.004818   1.242975   0.261165  -0.602100  12.178800   0.010233   0.009391 -10.993104   2.467461   1.971770   0.182193  -0.000174   0.000468
 -2.371759   0.923411   3.981372  -1.747589   0.817851  -0.384340   1.009248  -1.124535   1.138057   0.437433  -1.207289   0.757278  -0.642275   0.937413   0.330349   0.262394  -3.414866   4.447528   1.805914   0.998504  22.196241   0.121245   6.030458  -0.002356   0.884566   0.135907  -4.166571   0.087242   2.419625  -5.493817   2.835555  -0.926938 -20.630078   0.126956  -7.382113   0.011663   1.443229   0.147516   2.569186  -1.576761  -1.647158  -0.593737   4.845492   0.002689  -0.007505  -6.889861  -3.457844   0.536375  -1.825485  -0.000611   0.004703   2.135875   0.379256  -0.525960  12.494824   0.008825   0.007644 -12.321002   2.735716   2.443478   0.395885  -0.000610   0.001089
 -2.370979   0.922363   3.981918  -1.840739   0.891018  -0.644294   1.211190  -1.270322   1.462928   0.268497  -1.393480   0.977611  -0.811311   1.020465   0.342233   0.423176  -3.865282   4.974028   2.132095   1.113907  25.214558   0.123068   6.802476  -0.002418   0.863848   0.079117  -3.016059   0.151321   2.641470  -6.034940   2.745583  -1.178560 -23.455276   0.123968  -8.209457   0.009510   1.506822   0.081066   1.469739  -2.215817  -2.059303  -0.451549   6.383978   0.002756  -0.010708  -7.217825  -3.922905   0.668471  -1.815736  -0.000489   0.003694   2.944877   0.481090  -0.546927  12.596098   0.007336   0.006204 -13.577203   2.972364   2.889605   0.560015  -0.000686   0.001485
 -2.370137   0.921219   3.982192  -1.894259   0.991637  -0.900826   1.427979  -1.428266   1.768704   0.119012  -1.594012   1.192838  -0.971069   1.098263   0.354958   0.570098  -4.273945   5.366814   2.425363   1.244135  27.962535   0.120199   7.526408  -0.002451   0.846875   0.039603  -2.023667   0.198866   2.809638  -6.423900   2.639690  -1.433968 -26.010473   0.117671  -8.991965   0.008298   1.571113  -0.035525   0.548650  -2.842873  -2.442342  -0.320416   7.799235   0.002691  -0.012163  -7.549662  -4.356733   0.786865  -1.814474  -0.000394   0.002947   3.675973   0.579097  -0.633511  12.650327   0.006045   0.005018 -14.754653   3.182815   3.310268   0.701084  -0.000610   0.001721
 -2.369252   0.919990   3.982258  -1.920779   1.089138  -1.163283   1.657603  -1.586586   2.061283  -0.005952  -1.796202   1.403513  -1.117987   1.171050   0.367875   0.702054  -4.642893   5.658252   2.687096   1.386065  30.473327   0.114397   8.205810  -0.002422   0.832969   0.018499  -1.184202   0.231708   2.938735  -6.697170   2.521302  -1.685848 -28.331136   0.109546  -9.730125   0.007724   1.635007  -0.189492  -0.201835  -3.455244  -2.799712  -0.188813   9.110006   0.002557  -0.012766  -7.872578  -4.762026   0.894881  -1.815294  -0.000317   0.002362   4.347097   0.672194  -0.765744  12.687714   0.004972   0.004047 -15.855872   3.370456   3.706689   0.828493  -0.000462   0.001832
 -2.368339   0.918691   3.982169  -1.925563   1.169493  -1.435624   1.895445  -1.740510   2.341623  -0.108429  -1.993911   1.609362  -1.252176   1.239039   0.380962   0.819870  -4.977051   5.871909   2.920067   1.534946  32.774535   0.106851   8.843065  -0.002299   0.821210   0.013383  -0.470162   0.252478   3.039932  -6.881502   2.394154  -1.928715 -30.446450   0.100583 -10.424631   0.007543   1.697150  -0.367381  -0.812018  -4.051983  -3.135221  -0.051261  10.327491   0.002379  -0.012940  -8.182657  -5.141204   0.994554  -1.816936  -0.000255   0.001898   4.969167   0.759270  -0.931374  12.716649   0.004091   0.003254 -16.885099   3.537953   4.079973   0.945133  -0.000283   0.001844
